<svg xmlns="http://www.w3.org/2000/svg" width="40" height="40" viewBox="0 0 3750 3750" fill="white">
  <g transform="translate(0.000000,3750.000000) scale(0.100000,-0.100000)">
    <path d="M16540 24264 c-25 -2 -115 -8 -200 -14 -85 -6 -243 -22 -350 -36
-1900 -238 -3626 -1006 -5161 -2295 -312 -262 -745 -686 -1004 -983 -782 -894
-1335 -1878 -1696 -3016 -78 -245 -94 -312 -124 -520 -47 -336 -58 -480 -59
-780 -1 -370 28 -619 109 -925 154 -588 424 -1049 879 -1500 545 -540 1198
-846 2013 -942 202 -23 643 -24 879 0 436 43 1264 266 1904 512 774 299 1500
690 2170 1169 674 482 1324 1085 1910 1771 83 97 320 391 391 485 l26 35 114
-101 c1274 -1121 2767 -1998 4184 -2457 648 -210 1219 -328 1880 -389 188 -17
837 -17 1015 0 1251 123 2298 601 3299 1506 336 304 543 561 676 839 65 136
97 228 125 367 20 95 21 126 17 340 -4 187 -9 255 -26 332 -105 483 -381 767
-785 808 -259 26 -801 -89 -1831 -390 -1068 -311 -1865 -481 -2585 -552 -210
-20 -842 -17 -1050 5 -1106 120 -2025 491 -2982 1204 -558 416 -1024 814
-1601 1367 -226 217 -276 258 -383 308 -214 100 -406 71 -609 -90 -109 -87
-244 -229 -311 -327 -34 -50 -111 -191 -171 -315 -374 -763 -908 -1393 -1658
-1955 -151 -113 -580 -399 -810 -540 -419 -258 -954 -542 -1355 -720 -642
-285 -1123 -434 -1640 -507 -145 -20 -700 -17 -852 6 -349 50 -624 173 -810
360 -129 130 -193 346 -169 569 36 328 164 631 455 1072 611 925 1458 1744
2596 2511 1163 784 2173 1262 2970 1408 331 60 943 146 1310 182 243 25 685
25 910 0 823 -89 1561 -373 2251 -867 115 -83 180 -114 271 -130 171 -31 304
66 423 306 222 449 167 1078 -119 1369 -87 89 -438 345 -702 514 -883 564
-1830 891 -2859 987 -158 15 -766 28 -875 19z"/>
    <path d="M24515 22866 c-77 -18 -152 -47 -212 -82 -63 -36 -160 -130 -184
-176 -10 -20 -32 -46 -49 -58 -16 -12 -62 -66 -102 -120 -68 -95 -74 -100
-137 -125 -244 -98 -414 -308 -527 -650 -87 -265 -119 -492 -111 -775 8 -289
54 -488 172 -750 162 -359 380 -620 640 -765 188 -105 461 -160 675 -135 284
32 517 164 720 407 275 329 432 706 476 1138 20 205 23 485 5 615 -71 522
-281 958 -615 1278 -103 98 -201 155 -321 188 -82 23 -347 29 -430 10z"/>
  </g>
</svg>

